<svg xmlns="http://www.w3.org/2000/svg" viewBox="0 0 1242 2208">
  <!-- Background with gradient -->
  <defs>
    <linearGradient id="grad1" x1="0%" y1="0%" x2="100%" y2="100%">
      <stop offset="0%" style="stop-color:#6366f1;stop-opacity:1" />
      <stop offset="100%" style="stop-color:#8b5cf6;stop-opacity:1" />
    </linearGradient>
  </defs>
  
  <!-- Full background -->
  <rect width="1242" height="2208" fill="url(#grad1)"/>
  
  <!-- Centered icon group -->
  <g transform="translate(465.75, 948.75)">
    <!-- Dashboard grid (2x2) -->
    <g fill="white" opacity="0.9">
      <rect x="0" y="0" width="52.785000000000004" height="52.785000000000004" rx="9.315"/>
      <rect x="68.31" y="0" width="52.785000000000004" height="52.785000000000004" rx="9.315"/>
      <rect x="0" y="68.31" width="52.785000000000004" height="52.785000000000004" rx="9.315"/>
      <rect x="68.31" y="68.31" width="52.785000000000004" height="52.785000000000004" rx="9.315"/>
    </g>
    
    <!-- Message bubble with dots -->
    <g transform="translate(139.725, 139.725)">
      <!-- Speech bubble -->
      <path d="M 0,0 Q 0,-21.735000000000003 21.735000000000003,-21.735000000000003 L 111.78,-21.735000000000003 Q 133.515,-21.735000000000003 133.515,0 L 133.515,58.995 Q 133.515,80.73 111.78,80.73 L 52.785000000000004,80.73 L 21.735000000000003,111.78 L 21.735000000000003,80.73 Q 0,80.73 0,58.995 Z" 
            fill="white" 
            opacity="0.9"/>
      
      <!-- Three dots -->
      <circle cx="40.365" cy="29.4975" r="8.694" fill="#6366f1"/>
      <circle cx="66.7575" cy="29.4975" r="8.694" fill="#6366f1"/>
      <circle cx="93.14999999999999" cy="29.4975" r="8.694" fill="#6366f1"/>
    </g>
  </g>
  
  <!-- App name -->
  <text x="621" y="1336.875" 
        font-family="system-ui, -apple-system, sans-serif" 
        font-size="55.89" 
        font-weight="600"
        fill="white" 
        text-anchor="middle" 
        opacity="0.95">Dashboard</text>
</svg>