<svg xmlns="http://www.w3.org/2000/svg" viewBox="0 0 1290 2796">
  <!-- Background with gradient -->
  <defs>
    <linearGradient id="grad1" x1="0%" y1="0%" x2="100%" y2="100%">
      <stop offset="0%" style="stop-color:#6366f1;stop-opacity:1" />
      <stop offset="100%" style="stop-color:#8b5cf6;stop-opacity:1" />
    </linearGradient>
  </defs>
  
  <!-- Full background -->
  <rect width="1290" height="2796" fill="url(#grad1)"/>
  
  <!-- Centered icon group -->
  <g transform="translate(483.75, 1236.75)">
    <!-- Dashboard grid (2x2) -->
    <g fill="white" opacity="0.9">
      <rect x="0" y="0" width="54.825" height="54.825" rx="9.674999999999999"/>
      <rect x="70.95" y="0" width="54.825" height="54.825" rx="9.674999999999999"/>
      <rect x="0" y="70.95" width="54.825" height="54.825" rx="9.674999999999999"/>
      <rect x="70.95" y="70.95" width="54.825" height="54.825" rx="9.674999999999999"/>
    </g>
    
    <!-- Message bubble with dots -->
    <g transform="translate(145.125, 145.125)">
      <!-- Speech bubble -->
      <path d="M 0,0 Q 0,-22.575000000000003 22.575000000000003,-22.575000000000003 L 116.1,-22.575000000000003 Q 138.675,-22.575000000000003 138.675,0 L 138.675,61.275 Q 138.675,83.85000000000001 116.1,83.85000000000001 L 54.825,83.85000000000001 L 22.575000000000003,116.1 L 22.575000000000003,83.85000000000001 Q 0,83.85000000000001 0,61.275 Z" 
            fill="white" 
            opacity="0.9"/>
      
      <!-- Three dots -->
      <circle cx="41.925000000000004" cy="30.6375" r="9.03" fill="#6366f1"/>
      <circle cx="69.3375" cy="30.6375" r="9.03" fill="#6366f1"/>
      <circle cx="96.75" cy="30.6375" r="9.03" fill="#6366f1"/>
    </g>
  </g>
  
  <!-- App name -->
  <text x="645" y="1639.875" 
        font-family="system-ui, -apple-system, sans-serif" 
        font-size="58.05" 
        font-weight="600"
        fill="white" 
        text-anchor="middle" 
        opacity="0.95">Dashboard</text>
</svg>