<svg xmlns="http://www.w3.org/2000/svg" viewBox="0 0 2388 1668">
  <!-- Background with gradient -->
  <defs>
    <linearGradient id="grad1" x1="0%" y1="0%" x2="100%" y2="100%">
      <stop offset="0%" style="stop-color:#6366f1;stop-opacity:1" />
      <stop offset="100%" style="stop-color:#8b5cf6;stop-opacity:1" />
    </linearGradient>
  </defs>
  
  <!-- Full background -->
  <rect width="2388" height="1668" fill="url(#grad1)"/>
  
  <!-- Centered icon group -->
  <g transform="translate(985.5, 625.5)">
    <!-- Dashboard grid (2x2) -->
    <g fill="white" opacity="0.9">
      <rect x="0" y="0" width="70.89" height="70.89" rx="12.51"/>
      <rect x="91.74" y="0" width="70.89" height="70.89" rx="12.51"/>
      <rect x="0" y="91.74" width="70.89" height="70.89" rx="12.51"/>
      <rect x="91.74" y="91.74" width="70.89" height="70.89" rx="12.51"/>
    </g>
    
    <!-- Message bubble with dots -->
    <g transform="translate(187.65, 187.65)">
      <!-- Speech bubble -->
      <path d="M 0,0 Q 0,-29.19 29.19,-29.19 L 150.12,-29.19 Q 179.31,-29.19 179.31,0 L 179.31,79.23 Q 179.31,108.42 150.12,108.42 L 70.89,108.42 L 29.19,150.12 L 29.19,108.42 Q 0,108.42 0,79.23 Z" 
            fill="white" 
            opacity="0.9"/>
      
      <!-- Three dots -->
      <circle cx="54.21" cy="39.615" r="11.676" fill="#6366f1"/>
      <circle cx="89.655" cy="39.615" r="11.676" fill="#6366f1"/>
      <circle cx="125.1" cy="39.615" r="11.676" fill="#6366f1"/>
    </g>
  </g>
  
  <!-- App name -->
  <text x="1194" y="1146.75" 
        font-family="system-ui, -apple-system, sans-serif" 
        font-size="75.06" 
        font-weight="600"
        fill="white" 
        text-anchor="middle" 
        opacity="0.95">Dashboard</text>
</svg>