<svg xmlns="http://www.w3.org/2000/svg" viewBox="0 0 1284 2778">
  <!-- Background with gradient -->
  <defs>
    <linearGradient id="grad1" x1="0%" y1="0%" x2="100%" y2="100%">
      <stop offset="0%" style="stop-color:#6366f1;stop-opacity:1" />
      <stop offset="100%" style="stop-color:#8b5cf6;stop-opacity:1" />
    </linearGradient>
  </defs>
  
  <!-- Full background -->
  <rect width="1284" height="2778" fill="url(#grad1)"/>
  
  <!-- Centered icon group -->
  <g transform="translate(481.5, 1228.5)">
    <!-- Dashboard grid (2x2) -->
    <g fill="white" opacity="0.9">
      <rect x="0" y="0" width="54.57000000000001" height="54.57000000000001" rx="9.629999999999999"/>
      <rect x="70.62" y="0" width="54.57000000000001" height="54.57000000000001" rx="9.629999999999999"/>
      <rect x="0" y="70.62" width="54.57000000000001" height="54.57000000000001" rx="9.629999999999999"/>
      <rect x="70.62" y="70.62" width="54.57000000000001" height="54.57000000000001" rx="9.629999999999999"/>
    </g>
    
    <!-- Message bubble with dots -->
    <g transform="translate(144.45000000000002, 144.45000000000002)">
      <!-- Speech bubble -->
      <path d="M 0,0 Q 0,-22.470000000000002 22.470000000000002,-22.470000000000002 L 115.56,-22.470000000000002 Q 138.03,-22.470000000000002 138.03,0 L 138.03,60.99 Q 138.03,83.46000000000001 115.56,83.46000000000001 L 54.57000000000001,83.46000000000001 L 22.470000000000002,115.56 L 22.470000000000002,83.46000000000001 Q 0,83.46000000000001 0,60.99 Z" 
            fill="white" 
            opacity="0.9"/>
      
      <!-- Three dots -->
      <circle cx="41.730000000000004" cy="30.495" r="8.988" fill="#6366f1"/>
      <circle cx="69.015" cy="30.495" r="8.988" fill="#6366f1"/>
      <circle cx="96.3" cy="30.495" r="8.988" fill="#6366f1"/>
    </g>
  </g>
  
  <!-- App name -->
  <text x="642" y="1629.75" 
        font-family="system-ui, -apple-system, sans-serif" 
        font-size="57.78" 
        font-weight="600"
        fill="white" 
        text-anchor="middle" 
        opacity="0.95">Dashboard</text>
</svg>