<svg xmlns="http://www.w3.org/2000/svg" viewBox="0 0 828 1792">
  <!-- Background with gradient -->
  <defs>
    <linearGradient id="grad1" x1="0%" y1="0%" x2="100%" y2="100%">
      <stop offset="0%" style="stop-color:#6366f1;stop-opacity:1" />
      <stop offset="100%" style="stop-color:#8b5cf6;stop-opacity:1" />
    </linearGradient>
  </defs>
  
  <!-- Full background -->
  <rect width="828" height="1792" fill="url(#grad1)"/>
  
  <!-- Centered icon group -->
  <g transform="translate(310.5, 792.5)">
    <!-- Dashboard grid (2x2) -->
    <g fill="white" opacity="0.9">
      <rect x="0" y="0" width="35.190000000000005" height="35.190000000000005" rx="6.21"/>
      <rect x="45.54" y="0" width="35.190000000000005" height="35.190000000000005" rx="6.21"/>
      <rect x="0" y="45.54" width="35.190000000000005" height="35.190000000000005" rx="6.21"/>
      <rect x="45.54" y="45.54" width="35.190000000000005" height="35.190000000000005" rx="6.21"/>
    </g>
    
    <!-- Message bubble with dots -->
    <g transform="translate(93.15, 93.15)">
      <!-- Speech bubble -->
      <path d="M 0,0 Q 0,-14.490000000000002 14.490000000000002,-14.490000000000002 L 74.52,-14.490000000000002 Q 89.01,-14.490000000000002 89.01,0 L 89.01,39.33 Q 89.01,53.82 74.52,53.82 L 35.190000000000005,53.82 L 14.490000000000002,74.52 L 14.490000000000002,53.82 Q 0,53.82 0,39.33 Z" 
            fill="white" 
            opacity="0.9"/>
      
      <!-- Three dots -->
      <circle cx="26.91" cy="19.665" r="5.796" fill="#6366f1"/>
      <circle cx="44.505" cy="19.665" r="5.796" fill="#6366f1"/>
      <circle cx="62.099999999999994" cy="19.665" r="5.796" fill="#6366f1"/>
    </g>
  </g>
  
  <!-- App name -->
  <text x="414" y="1051.25" 
        font-family="system-ui, -apple-system, sans-serif" 
        font-size="37.26" 
        font-weight="600"
        fill="white" 
        text-anchor="middle" 
        opacity="0.95">Dashboard</text>
</svg>