<svg xmlns="http://www.w3.org/2000/svg" viewBox="0 0 1170 2532">
  <!-- Background with gradient -->
  <defs>
    <linearGradient id="grad1" x1="0%" y1="0%" x2="100%" y2="100%">
      <stop offset="0%" style="stop-color:#6366f1;stop-opacity:1" />
      <stop offset="100%" style="stop-color:#8b5cf6;stop-opacity:1" />
    </linearGradient>
  </defs>
  
  <!-- Full background -->
  <rect width="1170" height="2532" fill="url(#grad1)"/>
  
  <!-- Centered icon group -->
  <g transform="translate(438.75, 1119.75)">
    <!-- Dashboard grid (2x2) -->
    <g fill="white" opacity="0.9">
      <rect x="0" y="0" width="49.725" height="49.725" rx="8.775"/>
      <rect x="64.35" y="0" width="49.725" height="49.725" rx="8.775"/>
      <rect x="0" y="64.35" width="49.725" height="49.725" rx="8.775"/>
      <rect x="64.35" y="64.35" width="49.725" height="49.725" rx="8.775"/>
    </g>
    
    <!-- Message bubble with dots -->
    <g transform="translate(131.625, 131.625)">
      <!-- Speech bubble -->
      <path d="M 0,0 Q 0,-20.475 20.475,-20.475 L 105.3,-20.475 Q 125.77499999999999,-20.475 125.77499999999999,0 L 125.77499999999999,55.575 Q 125.77499999999999,76.05 105.3,76.05 L 49.725,76.05 L 20.475,105.3 L 20.475,76.05 Q 0,76.05 0,55.575 Z" 
            fill="white" 
            opacity="0.9"/>
      
      <!-- Three dots -->
      <circle cx="38.025" cy="27.7875" r="8.19" fill="#6366f1"/>
      <circle cx="62.887499999999996" cy="27.7875" r="8.19" fill="#6366f1"/>
      <circle cx="87.75" cy="27.7875" r="8.19" fill="#6366f1"/>
    </g>
  </g>
  
  <!-- App name -->
  <text x="585" y="1485.375" 
        font-family="system-ui, -apple-system, sans-serif" 
        font-size="52.65" 
        font-weight="600"
        fill="white" 
        text-anchor="middle" 
        opacity="0.95">Dashboard</text>
</svg>